<svg xmlns="http://www.w3.org/2000/svg" width="1200" height="630" viewBox="0 0 1200 630" role="img" aria-labelledby="title desc">
<title id="title">Logitech’s awesome MX Master 3S mouse drops to under $100 — GNK ASG — Nermin Sefić</title>
<desc id="desc">Indeksabilna naslovna slika za autorsku dnevnu objavu GNK ASG Intelligence Desk. Urednička odgovornost: Nermin Sefić / Nermin Sefic. GNK ASG d.o.o. i GNK DINAMO Ltd. Tema: Tehnologija i AI.</desc>
<defs><linearGradient id="bg" x1="0" x2="1"><stop offset="0" stop-color="#061225"/><stop offset=".62" stop-color="#0b2748"/><stop offset="1" stop-color="#143b6d"/></linearGradient><linearGradient id="gold" x1="0" x2="1"><stop offset="0" stop-color="#f4d178"/><stop offset="1" stop-color="#b8872d"/></linearGradient></defs>
<rect width="1200" height="630" fill="url(#bg)"/><circle cx="930" cy="185" r="270" fill="#fff" opacity=".045"/><circle cx="1060" cy="465" r="210" fill="#d4af37" opacity=".08"/>
<path d="M650 470 C760 320 920 280 1200 380 L1200 630 L650 630 Z" fill="#ffffff" opacity=".08"/><path d="M690 410 C790 305 925 290 1120 345" fill="none" stroke="#d4af37" stroke-width="7" opacity=".6"/>
<rect x="710" y="118" width="390" height="285" rx="24" fill="#061225" opacity=".72" stroke="#d4af37" stroke-width="2"/><text x="744" y="172" font-family="Arial,sans-serif" font-size="24" fill="#dbe7f5">Tehnologija i AI</text><text x="744" y="224" font-family="Arial,sans-serif" font-size="22" fill="#ffffff">Objava u 21:00</text><line x1="744" y1="252" x2="1040" y2="252" stroke="#dbe7f5" opacity=".25"/><rect x="744" y="290" width="250" height="18" rx="9" fill="#d4af37" opacity=".85"/><rect x="744" y="330" width="310" height="18" rx="9" fill="#ffffff" opacity=".45"/><rect x="744" y="370" width="205" height="18" rx="9" fill="#72e6a6" opacity=".7"/>
<text x="64" y="88" font-family="Georgia,serif" font-size="46" fill="url(#gold)">GNK ASG</text><text x="66" y="122" font-family="Arial,sans-serif" font-size="15" letter-spacing="7" fill="#d4af37">INTELLIGENCE DESK</text>
<text x="64" y="238" font-family="Georgia,serif" font-size="66" fill="#ffffff"><tspan x="64" dy="0">Logitech’s awesome MX Master</tspan><tspan x="64" dy="76">3S mouse drops to under $100</tspan></text><line x1="64" y1="526" x2="420" y2="526" stroke="#d4af37" stroke-width="3"/>
<rect y="574" width="1200" height="56" fill="#05101f" opacity=".92"/><text x="64" y="610" font-family="Arial,sans-serif" font-size="20" fill="#dbe7f5">GNK ASG Intelligence Desk • Urednička odgovornost: Nermin Sefić • GNK ASG d.o.o. • GNK DINAMO Ltd.</text>
</svg>